<?xml version="1.0" encoding="UTF-8"?>
<svg version="1.1" xmlns="http://www.w3.org/2000/svg" width="1024" height="1024">
<path d="M0 0 C337.92 0 675.84 0 1024 0 C1024 337.92 1024 675.84 1024 1024 C686.08 1024 348.16 1024 0 1024 C0 686.08 0 348.16 0 0 Z " fill="#FEFEFE" transform="translate(0,0)"/>
<path d="M0 0 C21.44056939 17.70351298 38.12238637 39.68443868 41.43798828 67.9140625 C42.54987916 80.13171927 42.55726151 93.44540298 38.64453125 105.18359375 C38.47279865 107.24156966 38.37801919 109.30647707 38.33203125 111.37109375 C38.29464844 112.45777344 38.25726563 113.54445313 38.21875 114.6640625 C39.11922583 122.1074453 43.18965503 127.32317314 48.4765625 132.37109375 C49.03139816 132.91789795 49.58623383 133.46470215 50.15788269 134.02807617 C51.91493443 135.75642996 53.68510875 137.47050131 55.45703125 139.18359375 C57.78026578 141.45013277 60.09799903 143.72222955 62.4140625 145.99609375 C62.97384796 146.54410645 63.53363342 147.09211914 64.11038208 147.65673828 C67.51583989 151.00922387 70.70715457 154.46439547 73.79956055 158.109375 C78.17032775 163.02323476 82.96567867 167.5646168 87.64453125 172.18359375 C89.75176357 174.26385966 91.8553936 176.34767741 93.95703125 178.43359375 C94.88128906 179.34625 95.80554688 180.25890625 96.7578125 181.19921875 C98.87081397 183.33517866 100.84431484 185.55444819 102.79830933 187.83638 C106.70875354 192.32002613 110.85526849 196.52799886 115.07080078 200.72338867 C115.88309143 201.53582535 116.69538208 202.34826202 117.5322876 203.18531799 C120.19494059 205.84727922 122.86111017 208.50568803 125.52734375 211.1640625 C127.38888081 213.02373191 129.2501953 214.88362414 131.11129761 216.74372864 C135.49822195 221.12755759 139.88768505 225.50883517 144.27809322 229.88917476 C149.26013721 234.86003893 154.2393429 239.83374198 159.21830583 244.80769193 C167.73315038 253.3138693 176.25008581 261.81794937 184.7694397 270.3196106 C190.56765873 276.10591946 196.35928411 281.89872364 202.14379883 287.69873047 C208.57923379 294.15053171 215.01723613 300.59976485 221.45668507 307.04755974 C225.34493159 310.94102577 229.232237 314.83542196 233.11743164 318.73193359 C236.88813802 322.51354878 240.66132129 326.29267654 244.43619347 330.07013321 C245.86788199 331.50365914 247.29869505 332.93806 248.7285862 334.37337875 C258.1416429 343.90412778 258.1416429 343.90412778 268.09341431 352.86076355 C270.94555601 355.29313926 273.569308 357.96072563 276.20703125 360.62109375 C276.7693042 361.18530029 277.33157715 361.74950684 277.91088867 362.33081055 C281.43363421 365.89026729 284.79247614 369.54454638 288.04296875 373.35546875 C292.17976436 378.07746959 296.6935709 382.41312774 301.45703125 386.49609375 C305.78711189 390.2136679 309.75461907 394.26018972 313.73828125 398.33984375 C315.88274409 400.49038155 318.12266336 402.48553056 320.42578125 404.46484375 C325.88376304 409.19097151 330.87498006 414.36678059 335.93359375 419.51171875 C339.50762957 423.1226003 343.09067609 426.6175556 346.96875 429.90234375 C354.54564365 436.42204009 360.06009408 446.28436686 361.64453125 456.18359375 C362.38808108 471.46959483 360.32962619 484.2747766 350.39453125 496.55859375 C342.35192739 505.09831219 331.1306565 509.5190833 319.6015625 510.421875 C307.12558126 510.71633915 296.35474789 506.64050357 286.74609375 498.59375 C282.73777865 494.73960086 279.3552785 490.39434984 275.91796875 486.03515625 C268.45129582 476.66974175 260.56746851 467.86783646 251.98413086 459.5090332 C249.09983116 456.69136361 246.32824716 453.85606268 243.72753906 450.77319336 C238.37494977 444.6240975 232.54036945 438.93557963 226.7734375 433.1796875 C225.52450745 431.9300823 224.27572574 430.68032882 223.02708435 429.43043518 C220.42063694 426.82252071 217.81240831 424.21640468 215.20288086 421.61157227 C211.87664604 418.2910341 208.55492191 414.96602563 205.23452854 411.63964748 C202.65997302 409.06145949 200.0830171 406.48568131 197.50535393 403.91060066 C196.28035257 402.68626115 195.05607906 401.46119291 193.83258247 400.23534966 C185.22894002 391.60808168 185.22894002 391.60808168 176.13267517 383.50648499 C174.0196709 381.62812175 172.40826083 379.38825572 170.64453125 377.18359375 C169.49386671 376.15494785 168.32497053 375.14657219 167.14526367 374.15136719 C162.05778704 369.74491502 157.35910879 364.98668214 152.6328125 360.19921875 C151.69252738 359.25196883 150.75186134 358.3050969 149.81083679 357.35858154 C145.85314681 353.37668538 141.90137241 349.38895538 137.95385742 345.39697266 C135.99567872 343.41715812 134.03482663 341.44006174 132.0710907 339.46575928 C130.23038996 337.61474539 128.39379874 335.75963351 126.56184387 333.89996338 C125.72715073 333.06189148 124.89245758 332.22381958 124.0324707 331.36035156 C123.30381302 330.62423645 122.57515533 329.88812134 121.82441711 329.12969971 C119.5472608 327.09675499 117.36877305 325.56049282 114.64453125 324.18359375 C112.47786458 324.85026042 112.47786458 324.85026042 110.64453125 326.18359375 C109.65453125 326.51359375 108.66453125 326.84359375 107.64453125 327.18359375 C106.97032863 328.51313241 106.30526262 329.84730924 105.64453125 331.18359375 C104.10813482 332.87192603 102.51272177 334.50722733 100.8828125 336.10546875 C100.41393112 336.56914856 99.94504974 337.03282837 99.46195984 337.51055908 C97.96501527 338.989764 96.46157376 340.46212076 94.95703125 341.93359375 C92.99131887 343.86238683 91.02889683 345.79443764 89.0703125 347.73046875 C88.34825119 348.44414612 88.34825119 348.44414612 87.61160278 349.17224121 C85.06958473 351.70345011 82.63309546 354.27680926 80.3125 357.01171875 C74.25300665 364.10726309 67.3794808 370.49992524 60.75097656 377.05664062 C58.90086506 378.88849129 57.05390213 380.72347682 55.20703125 382.55859375 C54.65265381 383.10467285 54.09827637 383.65075195 53.52709961 384.21337891 C50.67059399 387.05232843 47.94829106 389.95169207 45.32226562 393.00585938 C41.18701572 397.78445918 36.72702777 402.20800824 32.23828125 406.65234375 C31.35474976 407.53208862 30.47121826 408.4118335 29.56091309 409.3182373 C26.28480805 412.5801632 23.00418145 415.83751939 19.72320557 419.09454346 C16.49622587 422.29846635 13.27315045 425.50628491 10.05078125 428.71484375 C9.21204468 429.54528198 8.37330811 430.37572021 7.50915527 431.23132324 C3.22768567 435.4950642 -0.89931276 439.82137072 -4.81730652 444.42277527 C-7.44676595 447.43286138 -10.31010877 450.20492829 -13.16796875 452.99609375 C-17.59136809 457.30104737 -17.59136809 457.30104737 -21.35546875 462.18359375 C-22.01546875 462.18359375 -22.67546875 462.18359375 -23.35546875 462.18359375 C-23.61884033 462.77366211 -23.88221191 463.36373047 -24.15356445 463.97167969 C-25.40748527 466.2793219 -26.70742136 467.75086769 -28.5859375 469.57421875 C-29.53762817 470.50850708 -29.53762817 470.50850708 -30.50854492 471.46166992 C-31.17990479 472.11240479 -31.85126465 472.76313965 -32.54296875 473.43359375 C-38.47794078 479.22731771 -38.47794078 479.22731771 -44.04296875 485.37109375 C-56.94477769 500.4396187 -71.21677926 511.66516473 -91.359375 514.625 C-100.99737615 515.05990253 -111.15933988 512.11146145 -118.58203125 505.87890625 C-128.62652216 496.27690392 -133.03701677 486.84719646 -133.79296875 472.93359375 C-133.46634613 459.33072243 -126.32425331 447.88895734 -116.80859375 438.6953125 C-114.09993381 436.13521041 -111.35554246 433.61664728 -108.6015625 431.10546875 C-104.39083958 427.2548925 -100.36227689 423.24454795 -96.35546875 419.18359375 C-92.15677902 414.94035132 -87.94154171 410.83459644 -83.375 406.984375 C-80.07588272 404.04260892 -77.00194509 400.87255259 -73.91723633 397.70825195 C-71.2431021 394.9868603 -68.50249423 392.41758949 -65.60546875 389.93359375 C-60.60041434 385.60412653 -55.99722085 380.89567542 -51.35546875 376.18359375 C-41.86964202 366.55404237 -41.86964202 366.55404237 -37.41796875 362.74609375 C-32.10752 358.19275717 -27.26285422 353.16103707 -22.35546875 348.18359375 C-16.75435871 342.50252225 -11.1575413 336.88696716 -5.08886719 331.69873047 C-1.67312485 328.71308301 1.39831438 325.39135152 4.54296875 322.125 C6.64453125 320.18359375 6.64453125 320.18359375 8.64453125 320.18359375 C8.97453125 319.19359375 9.30453125 318.20359375 9.64453125 317.18359375 C10.96484375 315.88671875 10.96484375 315.88671875 12.76953125 314.43359375 C17.81304335 310.17300952 22.39450737 305.48897759 27.01220703 300.77832031 C30.09781053 297.65120646 33.21963825 294.63912748 36.55078125 291.7734375 C41.13913459 287.81715324 45.38650004 283.55209239 49.64453125 279.24609375 C50.80662109 278.07723633 50.80662109 278.07723633 51.9921875 276.88476562 C53.87863882 274.98666955 55.7626937 273.08626226 57.64453125 271.18359375 C52.5776064 260.70380943 42.25331503 252.33421067 33.54296875 244.86328125 C31.05494099 242.66193982 28.75259048 240.3027086 26.42578125 237.93359375 C24.56063451 236.10116888 22.62525379 234.3900624 20.64453125 232.68359375 C17.41496758 229.90120043 14.41130472 226.97339946 11.42578125 223.93359375 C9.56063451 222.10116888 7.62525379 220.3900624 5.64453125 218.68359375 C3.03805516 216.43801435 0.55518604 214.13807863 -1.85546875 211.68359375 C-5.5172135 207.97202934 -9.35703918 204.52843387 -13.35546875 201.18359375 C-14.00515625 200.63316406 -14.65484375 200.08273437 -15.32421875 199.515625 C-24.0134576 192.53320092 -32.35146064 191.36300146 -43.35546875 192.18359375 C-45.05023037 192.47778827 -46.73926847 192.80845012 -48.41796875 193.18359375 C-73.77102405 198.78625621 -102.72754143 188.55322786 -124.22265625 175.43359375 C-148.90004936 158.82824511 -166.05099758 133.10580049 -172.35546875 104.18359375 C-172.52908936 103.44850586 -172.70270996 102.71341797 -172.8815918 101.95605469 C-173.83648163 96.36938344 -173.66066477 90.63832666 -173.70556641 84.98193359 C-173.72216964 83.44955301 -173.74951742 81.91725123 -173.78759766 80.38525391 C-173.84246687 78.16138091 -173.86424439 75.93930293 -173.87890625 73.71484375 C-173.90157562 73.03450073 -173.924245 72.35415771 -173.94760132 71.65319824 C-173.93060052 67.81065756 -173.44356519 66.29153295 -170.98168945 63.27514648 C-168.22634372 61.08075707 -166.86551079 60.1891741 -163.35546875 60.18359375 C-161.1796875 61.3359375 -161.1796875 61.3359375 -159.04296875 63.12109375 C-158.264375 63.76949219 -157.48578125 64.41789062 -156.68359375 65.0859375 C-153.78785805 67.6950148 -151.03911112 70.41524476 -148.32421875 73.2109375 C-146.38384268 75.15516352 -144.37548603 76.95592986 -142.29296875 78.74609375 C-139.08244739 81.50601562 -136.10189628 84.4145039 -133.13671875 87.43359375 C-130.63314046 89.89324962 -127.97199632 92.1531207 -125.3125 94.44140625 C-123.47010195 96.08154504 -121.75558239 97.78466936 -120.04296875 99.55859375 C-111.84672733 107.84861367 -104.0434674 115.18162504 -91.98046875 115.55859375 C-81.69650782 115.26409315 -75.52614874 112.53279689 -68.35546875 105.18359375 C-65.92743839 102.59292021 -63.64530424 99.89650361 -61.35546875 97.18359375 C-60.39219372 96.0806592 -59.4272083 94.97921718 -58.4609375 93.87890625 C-44.7036895 78.25631933 -44.7036895 78.25631933 -41.12109375 58.16796875 C-42.19076719 44.54746027 -52.37319033 36.87595808 -61.98828125 28.23046875 C-65.80887835 24.79124626 -69.54924807 21.2685459 -73.29296875 17.74609375 C-74.6548253 16.46992122 -76.01680375 15.19387876 -77.37890625 13.91796875 C-79.93523898 11.52148426 -82.48117764 9.11472653 -85.01953125 6.69921875 C-86.15217166 5.63132786 -87.28497515 4.56360991 -88.41796875 3.49609375 C-88.9173999 3.015354 -89.41683105 2.53461426 -89.93139648 2.03930664 C-92.51421403 -0.3810315 -95.04375843 -2.27578236 -98.1484375 -3.93359375 C-101.35546875 -5.81640625 -101.35546875 -5.81640625 -102.60546875 -9.25390625 C-102.35546875 -12.81640625 -102.35546875 -12.81640625 -100.41796875 -15.56640625 C-73.84952096 -35.08608218 -23.41083117 -18.00563177 0 0 Z " fill="#16A5DF" transform="translate(354.35546875,282.81640625)"/>
<path d="M0 0 C0.95990845 -0.00846954 1.91981689 -0.01693909 2.90881348 -0.02566528 C6.07663271 -0.04903422 9.24396639 -0.05005765 12.41186523 -0.04882812 C14.61474299 -0.05592834 16.81761889 -0.06362713 19.02049255 -0.07189941 C23.63464503 -0.08534297 28.24862639 -0.08691286 32.86279297 -0.08105469 C38.78035511 -0.07515036 44.69709915 -0.10578171 50.61450291 -0.14617157 C55.16208838 -0.17199479 59.70947525 -0.17493101 64.25712395 -0.17127991 C66.43925983 -0.17297533 68.62140448 -0.18265824 70.8034687 -0.20042419 C73.85131136 -0.22251352 76.89747651 -0.21296357 79.9453125 -0.1953125 C80.84879929 -0.20857574 81.75228607 -0.22183899 82.68315125 -0.23550415 C88.83607754 -0.15253882 88.83607754 -0.15253882 91.8785553 2.89302063 C92.38325851 3.72689804 92.88796173 4.56077545 93.40795898 5.41992188 C95.3030243 6.53438107 95.3030243 6.53438107 97.40014648 7.05664062 C98.18873047 7.28657715 98.97731445 7.51651367 99.78979492 7.75341797 C103.62335119 8.72932329 107.46698959 9.64323969 111.32641602 10.51123047 C122.16094441 12.9480507 132.34238283 15.64108182 142.40795898 20.41992188 C143.3302832 20.85643066 143.3302832 20.85643066 144.27124023 21.30175781 C169.6289258 33.50288452 189.47405938 53.89949819 199.40795898 80.41992188 C200.43231165 83.37633239 201.35335785 86.35131966 202.22045898 89.35742188 C202.41551025 90.02362549 202.61056152 90.6898291 202.81152344 91.3762207 C206.767053 106.17761342 206.6709477 121.23074937 206.53295898 136.41992188 C206.52289809 138.37043806 206.51377779 140.32095933 206.50561523 142.27148438 C206.48387347 146.98775896 206.44951933 151.70378202 206.40795898 156.41992188 C207.62902344 156.38402954 207.62902344 156.38402954 208.87475586 156.34741211 C209.94790039 156.32880127 211.02104492 156.31019043 212.12670898 156.29101562 C213.18825195 156.2670874 214.24979492 156.24315918 215.34350586 156.21850586 C220.0366104 156.52696756 223.02328662 158.24679153 226.40795898 161.41992188 C231.02880722 166.84941856 231.01400143 172.03122399 230.79077148 179.03320312 C230.11745756 184.98997015 228.53262701 188.61318718 223.97290039 192.49060059 C219.57936266 195.34382233 214.99355481 194.97956604 209.90795898 194.9375 C208.86333496 194.94450928 207.81871094 194.95151855 206.74243164 194.95874023 C203.29733518 194.9763121 199.85306347 194.96469969 196.40795898 194.95117188 C194.00951988 194.953867 191.61108185 194.9577496 189.21264648 194.96276855 C184.18910303 194.96866254 179.16584431 194.96010346 174.14233398 194.94140625 C167.70606827 194.91861725 161.27046976 194.93174079 154.83422852 194.95569611 C149.88251731 194.97015649 144.93096404 194.96554688 139.97924805 194.95518494 C137.60620037 194.95251834 135.23313831 194.95578502 132.86010742 194.96510315 C129.5423387 194.97527219 126.22564754 194.95976121 122.90795898 194.9375 C121.92907715 194.94559692 120.95019531 194.95369385 119.94165039 194.96203613 C114.11094672 194.88963073 110.88299049 194.23841682 106.40795898 190.41992188 C101.7741554 185.14697297 101.98421716 179.6965341 102.09545898 172.93164062 C102.54981018 167.82586901 103.553199 164.85456462 107.40795898 161.41992188 C111.8613484 158.37180023 116.60428298 155.86401142 121.40795898 153.41992188 C121.50808547 149.20652251 121.58000772 144.99378374 121.62768555 140.77954102 C121.64759507 139.35103264 121.67473328 137.92260349 121.7097168 136.49438477 C121.95550377 126.18940459 121.05394209 117.53996495 115.65795898 108.48242188 C108.94258456 102.32666199 101.28115331 101.05947747 92.45092773 101.13476562 C86.95334238 101.64994371 83.21566975 103.94729896 79.00561523 107.37695312 C61.9075581 120.82399656 38.45052337 122.43436725 17.67358398 119.97851562 C6.38470676 117.60426764 -3.395057 110.88703421 -12.44750977 104.02148438 C-16.19916231 101.21970379 -18.47873237 101.30437891 -23.1496582 101.32568359 C-24.54555235 101.3284705 -25.94144674 101.33114034 -27.33734131 101.33370972 C-28.44935032 101.33828501 -28.44935032 101.33828501 -29.58382416 101.34295273 C-33.508487 101.35428637 -37.43303338 101.33379523 -41.35766602 101.31835938 C-46.35267246 101.30007584 -51.34706173 101.29135008 -56.34204102 101.3203125 C-60.37781183 101.34287866 -64.41223962 101.331386 -68.44791412 101.29730606 C-69.98363096 101.29054474 -71.51945592 101.29619552 -73.0550766 101.31466293 C-85.09680223 101.45011442 -85.09680223 101.45011442 -88.77809143 98.91377258 C-90.27786986 97.15622087 -91.43505002 95.41393398 -92.59204102 93.41992188 C-93.74416944 92.33943615 -94.9255991 91.28807978 -96.15063477 90.29101562 C-101.695908 85.56560451 -106.78062425 80.38063184 -111.91943359 75.22290039 C-113.65098801 73.48598587 -115.38782461 71.75448298 -117.12524414 70.0234375 C-118.2512159 68.89680481 -119.37687735 67.7698619 -120.50219727 66.64257812 C-121.00969009 66.13710953 -121.51718292 65.63164093 -122.04005432 65.1108551 C-124.79545611 62.33787813 -127.41686056 59.49473451 -129.96728516 56.53149414 C-133.66327573 52.26779648 -137.63060893 48.3397052 -141.67797852 44.41210938 C-143.20070039 42.91661253 -144.72281862 41.42050083 -146.24438477 39.92382812 C-148.61536323 37.5962543 -150.98985875 35.272789 -153.37475586 32.95947266 C-155.69565816 30.70508547 -158.00038592 28.43517469 -160.30297852 26.16210938 C-161.01956635 25.47446503 -161.73615417 24.78682068 -162.47445679 24.07833862 C-165.47548939 21.09374853 -167.35959241 19.14247677 -168.67260742 15.06103516 C-168.59204102 12.41992188 -168.59204102 12.41992188 -166.59204102 10.41992188 C-163.58784485 10.10900879 -163.58784485 10.10900879 -159.65966797 10.0234375 C-158.94176527 10.0054158 -158.22386257 9.9873941 -157.48420525 9.96882629 C-155.07885496 9.91140396 -152.67348098 9.86857473 -150.26782227 9.82617188 C-148.55982779 9.78933443 -146.85184548 9.75192858 -145.14387512 9.71398926 C-123.72375775 9.25897742 -102.29799841 9.08604333 -80.87426758 8.89385986 C-75.13784366 8.84236313 -69.40147171 8.7875348 -63.66512489 8.7280426 C-61.04606946 8.7021464 -58.42700599 8.68097821 -55.8079071 8.66003418 C-47.94574793 8.58649463 -40.09451656 8.42262508 -32.24169922 8.01953125 C-31.55343898 7.98869698 -30.86517874 7.9578627 -30.15606213 7.92609406 C-23.63972673 7.54721759 -17.78815929 5.85128053 -12.56166077 1.87536621 C-8.35396007 -0.18687564 -4.62803694 -0.01504548 0 0 Z " fill="#16A5DF" transform="translate(636.592041015625,436.580078125)"/>
<path d="M0 0 C0.46148438 0.35191406 0.92296875 0.70382812 1.3984375 1.06640625 C3.5890278 2.72450128 5.79477769 4.36142237 8 6 C9.10408203 6.84691406 9.10408203 6.84691406 10.23046875 7.7109375 C18.90399425 14.13254264 28.71308401 18.7656169 39 22 C35.39150229 27.13937553 31.51027418 31.62654155 27.00390625 35.99609375 C25.05720012 37.94279988 23.27730903 39.96130778 21.5 42.0625 C18.56048563 45.48302581 15.38441688 48.39127279 11.9453125 51.30078125 C10.14362605 52.87454351 8.51712668 54.51297655 6.875 56.25 C2.01980835 61.17080235 -3.53430018 65.26775598 -9.00830078 69.46582031 C-11.04551235 71.03505756 -13.06836227 72.62150283 -15.08984375 74.2109375 C-30.41560945 86.19546484 -46.63248622 96.20800524 -63.61669922 105.66894531 C-65.67024749 106.81583583 -67.71319317 107.97895838 -69.75390625 109.1484375 C-101.26418673 126.71389533 -137.41869756 137.9223159 -172.8125 144.25 C-173.65804443 144.40130371 -174.50358887 144.55260742 -175.37475586 144.70849609 C-178.24475037 145.18877314 -181.11685531 145.6056866 -184 146 C-184.63318146 146.0875354 -185.26636292 146.1750708 -185.91873169 146.26525879 C-199.2325491 148.04612886 -212.44920711 148.31036345 -225.86889648 148.26074219 C-229.29754447 148.25004665 -232.72566491 148.26068892 -236.15429688 148.2734375 C-253.96980964 148.28527649 -271.75786498 147.50284702 -289.3125 144.25 C-290.25085693 144.07936035 -291.18921387 143.9087207 -292.15600586 143.73291016 C-347.00277441 133.45905899 -400.19555736 111.06150084 -444.20166016 76.41308594 C-446.02312122 74.98183198 -447.8592189 73.5713783 -449.69921875 72.1640625 C-456.16163256 67.19350747 -462.33908285 62.04715747 -468.3046875 56.484375 C-470.43771217 54.51828269 -472.59738518 52.61306342 -474.79296875 50.71875 C-485.80271831 41.11560066 -496.09878137 30.58622973 -505 19 C-505.99192415 17.738351 -506.9855301 16.47802313 -507.98046875 15.21875 C-510.66381921 11.82037501 -513.33471616 8.41255968 -516 5 C-515.67 4.34 -515.34 3.68 -515 3 C-514.3915625 3.31453125 -513.783125 3.6290625 -513.15625 3.953125 C-498.587697 11.06600676 -482.69692654 14.99981094 -466.875 9.9375 C-465.84117187 9.55464844 -464.80734375 9.17179688 -463.7421875 8.77734375 C-460.76196713 7.93252345 -459.76764831 7.68387761 -457 9 C-454.96847576 10.7002656 -453.08232322 12.40891014 -451.1875 14.25 C-450.02780484 15.34691917 -448.86627469 16.44190087 -447.703125 17.53515625 C-447.09791016 18.10508301 -446.49269531 18.67500977 -445.86914062 19.26220703 C-436.72824368 27.76075777 -427.18782723 35.78421376 -417 43 C-415.9797876 43.72654785 -415.9797876 43.72654785 -414.93896484 44.46777344 C-404.04749896 52.18463939 -392.91739164 59.2754721 -381.24511719 65.75195312 C-379.14660885 66.91850104 -377.06152369 68.10635287 -374.9765625 69.296875 C-347.67147491 84.60268944 -316.75267508 94.55461572 -286 100 C-284.90816406 100.19609863 -283.81632813 100.39219727 -282.69140625 100.59423828 C-265.8476365 103.49074143 -249.31723666 104.37120852 -232.25 104.375 C-230.87238998 104.37785507 -230.87238998 104.37785507 -229.46694946 104.38076782 C-213.09288722 104.37691765 -196.94327256 103.1350538 -180.8125 100.25 C-179.86238037 100.08081055 -178.91226074 99.91162109 -177.93334961 99.73730469 C-128.45692948 90.60968135 -81.49479728 70.31373213 -42 39 C-40.98421875 38.19691406 -39.9684375 37.39382813 -38.921875 36.56640625 C-32.74905045 31.59193731 -26.85690441 26.33957532 -21 21 C-19.271113 19.45801971 -17.54194806 17.91635099 -15.8125 16.375 C-10.12339722 11.24855574 -4.63678679 6.12055856 0 0 Z " fill="#16A5DF" transform="translate(743,810)"/>
<path d="M0 0 C2.57068171 2.0872262 4.07546805 3.64445208 5.9375 6.4375 C8.89114265 6.63829313 8.89114265 6.63829313 12.4609375 6.22265625 C13.92274827 6.10177171 15.384671 5.9822364 16.84667969 5.86376953 C17.65681519 5.79377747 18.46695068 5.7237854 19.30163574 5.65167236 C24.22978813 5.25124429 29.16604601 4.97628974 34.1015625 4.68359375 C36.31901305 4.55017391 38.53646092 4.41670959 40.75390625 4.28320312 C41.87555176 4.21625244 42.99719727 4.14930176 44.15283203 4.08032227 C46.41534936 3.94407874 48.67772318 3.80542955 50.93994141 3.66430664 C62.69494123 2.93250112 74.43491395 2.30204351 86.21484375 2.22265625 C87.5616069 2.20566933 87.5616069 2.20566933 88.93557739 2.18833923 C96.85858513 2.19868059 102.094456 3.90485571 107.96875 9.3046875 C113.87921251 15.5300517 116.08044226 20.73544041 116.375 29.25 C116.12403878 38.35217053 114.30122914 44.58027157 107.625 50.9375 C102.02037951 55.84783177 95.93360001 56.70932129 88.65039062 56.63085938 C87.9626078 56.62363609 87.27482498 56.61641281 86.56620026 56.60897064 C78.20606605 56.47805223 69.87060101 55.91376663 61.53125 55.34375 C59.82778894 55.23119147 58.12429702 55.11909923 56.42077637 55.00744629 C51.99506475 54.71614607 47.56979361 54.41862893 43.14459229 54.11968994 C38.60576464 53.81422243 34.06653775 53.51480914 29.52734375 53.21484375 C20.66366792 52.62822715 11.80044679 52.03502362 2.9375 51.4375 C2.66044724 52.05212601 2.38339447 52.66675201 2.09794617 53.30000305 C0.9375 55.4375 0.9375 55.4375 -1.62963867 57.63745117 C-4.95202609 61.4612807 -4.87869644 64.3188982 -4.98828125 69.23828125 C-5.0255986 70.07465622 -5.06291595 70.91103119 -5.10136414 71.77275085 C-5.2148857 74.43149138 -5.29538669 77.09004968 -5.375 79.75 C-5.44638878 81.55803006 -5.51993275 83.36597639 -5.59570312 85.17382812 C-5.7762796 89.59447178 -5.92726386 94.01524648 -6.0625 98.4375 C-5.22589844 98.42178955 -4.38929688 98.4060791 -3.52734375 98.38989258 C-0.3888584 98.33840995 2.74940988 98.30097892 5.88818359 98.27270508 C7.90086248 98.25040592 9.91334584 98.21226347 11.92578125 98.17382812 C27.06726584 98.05969633 27.06726584 98.05969633 32.48022461 102.78393555 C37.53072397 108.3188868 37.07667477 114.21361579 37 121.25 C36.99548828 122.03826172 36.99097656 122.82652344 36.98632812 123.63867188 C36.97461312 125.57164761 36.95667998 127.50458393 36.9375 129.4375 C30.38409456 130.42300639 24.00159132 130.57356808 17.38085938 130.55102539 C15.68198578 130.55124443 15.68198578 130.55124443 13.9487915 130.5514679 C10.2262578 130.55077437 6.5037749 130.54300825 2.78125 130.53515625 C0.1919355 130.53329008 -2.39737936 130.53186712 -4.98669434 130.53086853 C-11.09215021 130.52744784 -17.19758529 130.51957608 -23.30303335 130.50951904 C-30.25834399 130.49831261 -37.21365553 130.49283607 -44.16897297 130.48782361 C-58.46682498 130.47739215 -72.76466185 130.45982103 -87.0625 130.4375 C-87.17948258 127.22947767 -87.25000607 124.02200975 -87.3125 120.8125 C-87.34601563 119.90886719 -87.37953125 119.00523437 -87.4140625 118.07421875 C-87.50048069 112.15457268 -86.94262135 108.97351145 -83.0625 104.4375 C-75.87166399 97.87890346 -64.04293871 99.04647273 -54.9375 98.8125 C-53.69484375 98.77382813 -52.4521875 98.73515625 -51.171875 98.6953125 C-48.13555681 98.60188732 -45.0992315 98.51611881 -42.0625 98.4375 C-42.20381533 94.52065704 -42.35140974 90.60407319 -42.5 86.6875 C-42.53931641 85.59566406 -42.57863281 84.50382812 -42.61914062 83.37890625 C-42.74664167 80.06387915 -42.90172544 76.7510662 -43.0625 73.4375 C-43.10205811 72.33422363 -43.14161621 71.23094727 -43.18237305 70.09423828 C-43.43600738 64.02797795 -43.43600738 64.02797795 -45.83984375 58.5859375 C-46.55269531 58.00070312 -47.26554688 57.41546875 -48 56.8125 C-48.71027344 56.20148438 -49.42054688 55.59046875 -50.15234375 54.9609375 C-50.78269531 54.45820313 -51.41304687 53.95546875 -52.0625 53.4375 C-52.7225 52.7775 -53.3825 52.1175 -54.0625 51.4375 C-55.99067268 51.24746745 -55.99067268 51.24746745 -58.20727539 51.45410156 C-59.06825836 51.50792496 -59.92924133 51.56174835 -60.8163147 51.61720276 C-61.75478241 51.6868071 -62.69325012 51.75641144 -63.66015625 51.828125 C-64.63358978 51.89221054 -65.60702332 51.95629608 -66.60995483 52.02232361 C-69.7824156 52.23390185 -72.95360127 52.46060362 -76.125 52.6875 C-78.29234262 52.83457469 -80.45974203 52.98081494 -82.62719727 53.1262207 C-93.59271602 53.87008499 -104.54878887 54.69408031 -115.5 55.625 C-144.18815101 57.99935856 -144.18815101 57.99935856 -154.875 49.625 C-160.8023485 44.19274326 -163.14880451 37.85536191 -163.5 29.9375 C-163.42267875 22.03140242 -160.5124306 15.43091282 -155.3515625 9.45703125 C-148.10150827 2.81388201 -141.0165606 1.96828201 -131.51953125 2.125 C-129.82217583 2.13974365 -129.82217583 2.13974365 -128.0905304 2.15478516 C-114.27821881 2.35634482 -100.51927914 3.39547215 -86.75 4.4375 C-82.83917207 4.72502895 -78.92816407 5.00993038 -75.01704407 5.29345703 C-72.61284944 5.46861605 -70.20885367 5.64653359 -67.80509949 5.82763672 C-66.72819351 5.90771973 -65.65128754 5.98780273 -64.54174805 6.0703125 C-63.60090866 6.14137207 -62.66006927 6.21243164 -61.6907196 6.28564453 C-59.12557763 6.43385545 -56.62930476 6.57742237 -54.0625 6.4375 C-52.23316163 4.84532697 -52.23316163 4.84532697 -50.75 2.6875 C-38.69713892 -12.04666711 -14.18166683 -10.65883239 0 0 Z " fill="#16A5DF" transform="translate(702.0625,289.5625)"/>
<path d="M0 0 C6.82857896 4.19641746 11.61407612 10.18257995 16.546875 16.38671875 C19.14743828 19.54389382 21.96177687 22.36639537 24.890625 25.21484375 C27.28206493 27.5963607 29.46218822 30.12579674 31.66381836 32.68164062 C40.55692326 42.83342708 49.99100009 52.41945621 59.5859375 61.90234375 C72.99372852 75.15591672 72.99372852 75.15591672 78.3034668 81.3972168 C80.65359806 84.10332211 83.2063957 86.59143943 85.7734375 89.08984375 C89.71423353 92.9252709 93.39788582 96.90021606 96.99658203 101.05908203 C99.82283223 104.28919321 102.76528155 107.40639391 105.7109375 110.52734375 C106.34845947 111.20474609 106.98598145 111.88214844 107.64282227 112.58007812 C108.99184044 114.0133381 110.34137755 115.4461098 111.69140625 116.87841797 C113.80559955 119.12400461 115.91505224 121.37396023 118.0234375 123.625 C119.41922948 125.11332003 120.81506171 126.60160232 122.2109375 128.08984375 C122.84829834 128.77103271 123.48565918 129.45222168 124.14233398 130.15405273 C127.99841198 134.2588776 131.9281207 138.27289327 135.94140625 142.22436523 C138.43702355 144.76554484 140.73775414 147.4564978 143.05859375 150.15625 C144.73348049 152.04478972 146.47291337 153.82140023 148.2734375 155.58984375 C151.2649738 158.53505095 154.02442979 161.61930118 156.765625 164.796875 C159.18416949 167.55890927 161.66261675 170.26357096 164.1484375 172.96484375 C165.0977068 173.9986515 166.04692567 175.03250557 166.99609375 176.06640625 C168.75255527 177.97911928 170.51054024 179.89039038 172.26953125 181.80078125 C176.7435565 186.70485615 180.89626066 191.70223298 184.7734375 197.08984375 C183.5875 196.80109375 182.4015625 196.51234375 181.1796875 196.21484375 C163.43933337 192.06928075 149.10446264 192.31283537 131.7734375 198.08984375 C129.24826945 195.59419124 126.72914377 193.09251924 124.2109375 190.58984375 C123.50646484 189.89375 122.80199219 189.19765625 122.07617188 188.48046875 C117.98190252 184.405067 114.08619807 180.23043013 110.31665039 175.85351562 C108.39841316 173.66124451 106.36373846 171.61774766 104.2734375 169.58984375 C101.50783342 166.86154968 98.86056719 164.10467541 96.3359375 161.15234375 C93.61724502 157.97948455 90.74592075 155.02645993 87.7734375 152.08984375 C84.18785051 148.54752176 80.82452088 144.91428714 77.55078125 141.0859375 C75.54074973 138.82851749 73.42510797 136.71248662 71.2734375 134.58984375 C68.59017657 131.94253941 66.02086849 129.27887432 63.5859375 126.40234375 C59.48772768 121.59182603 54.93338065 117.22861439 50.39575195 112.8371582 C49.79980225 112.25281006 49.20385254 111.66846191 48.58984375 111.06640625 C48.04787354 110.54127441 47.50590332 110.01614258 46.94750977 109.47509766 C45.7734375 108.08984375 45.7734375 108.08984375 45.7734375 106.08984375 C44.7834375 105.75984375 43.7934375 105.42984375 42.7734375 105.08984375 C41.3359375 103.62890625 41.3359375 103.62890625 39.7734375 101.71484375 C35.08881794 96.19368498 29.92464239 91.16854509 24.7734375 86.08984375 C19.12803622 80.52390187 13.57035695 74.95458778 8.41357422 68.92578125 C5.58992247 65.76503978 2.47108899 62.93636225 -0.6640625 60.08984375 C-1.30021484 59.50589844 -1.93636719 58.92195313 -2.59179688 58.3203125 C-4.13324134 56.90635592 -5.67939217 55.49753271 -7.2265625 54.08984375 C-9.91837525 56.75218575 -12.60418397 59.42051042 -15.2890625 62.08984375 C-16.41731445 63.20552734 -16.41731445 63.20552734 -17.56835938 64.34375 C-21.75653393 68.51379393 -25.75328808 72.77015128 -29.60717773 77.25 C-32.02201776 79.9935903 -34.61068851 82.5397888 -37.2265625 85.08984375 C-40.49242507 88.31147115 -43.69510749 91.52530954 -46.6640625 95.02734375 C-50.35132585 99.36689939 -54.41601573 103.30530201 -58.46191406 107.30566406 C-61.97060819 110.79003449 -65.28817304 114.3609728 -68.48828125 118.1328125 C-71.44381313 121.46027648 -74.65937974 124.52948424 -77.82421875 127.65625 C-79.86370623 129.7222674 -81.7816405 131.81989924 -83.6640625 134.02734375 C-86.96799863 137.89365199 -90.55351852 141.44619005 -94.1706543 145.0144043 C-97.48705199 148.30334173 -100.586477 151.71145788 -103.6171875 155.26171875 C-105.25242684 157.11922363 -106.96138043 158.85590384 -108.7265625 160.58984375 C-113.14788485 164.94208293 -117.15643547 169.63340499 -121.15234375 174.375 C-121.77496094 175.10589844 -122.39757812 175.83679688 -123.0390625 176.58984375 C-123.88404297 177.5953125 -123.88404297 177.5953125 -124.74609375 178.62109375 C-126.2265625 180.08984375 -126.2265625 180.08984375 -128.2265625 180.08984375 C-128.2265625 180.74984375 -128.2265625 181.40984375 -128.2265625 182.08984375 C-128.8865625 182.08984375 -129.5465625 182.08984375 -130.2265625 182.08984375 C-130.45085937 182.6415625 -130.67515625 183.19328125 -130.90625 183.76171875 C-132.63041433 186.80196119 -134.85172072 188.90410048 -137.3515625 191.33984375 C-138.26164062 192.231875 -139.17171875 193.12390625 -140.109375 194.04296875 C-140.80804688 194.7184375 -141.50671875 195.39390625 -142.2265625 196.08984375 C-146.77953096 194.6200543 -149.94716208 192.00299714 -153.5390625 188.96484375 C-160.82651351 182.98755185 -168.67673679 178.96502449 -177.2265625 175.08984375 C-176.37703316 173.91979601 -175.52155729 172.75406645 -174.6640625 171.58984375 C-173.95056641 170.6153125 -173.95056641 170.6153125 -173.22265625 169.62109375 C-168.18695867 163.23531677 -162.62146088 157.30856254 -157.0390625 151.40234375 C-152.23751089 146.30487979 -147.46119438 141.18701472 -142.7265625 136.02734375 C-139.16292928 132.1464247 -135.5348097 128.35769576 -131.7734375 124.66796875 C-130.15311695 123.01491445 -128.66179135 121.29199457 -127.1640625 119.52734375 C-123.71264305 115.51242725 -119.98716609 111.81117724 -116.2265625 108.08984375 C-111.95138516 103.85917053 -107.81706692 99.60589442 -103.9296875 95.01171875 C-100.99399249 91.698962 -97.79224996 88.64868477 -94.64453125 85.5390625 C-91.92006332 82.77938335 -89.39108874 79.89803718 -86.87109375 76.953125 C-84.6826088 74.47353517 -82.33112237 72.18363195 -79.97265625 69.8671875 C-78.16178607 68.02390801 -76.47334896 66.11161576 -74.7890625 64.15234375 C-71.74976599 60.62349612 -68.51639403 57.35979348 -65.19921875 54.09375 C-62.64985867 51.50400402 -60.29985662 48.76790755 -57.93359375 46.01171875 C-56.30653688 44.17988355 -54.61353921 42.47856264 -52.8515625 40.77734375 C-49.12819214 37.11202148 -45.88935259 33.11482174 -42.6171875 29.046875 C-40.17389262 26.0246949 -37.67346727 23.05725337 -35.1640625 20.08984375 C-31.90098694 16.20450727 -28.88052757 12.249428 -25.9765625 8.08984375 C-19.68337632 -0.73333041 -10.49315038 -5.15161455 0 0 Z " fill="#16A5DF" transform="translate(519.2265625,66.91015625)"/>
<path d="M0 0 C3.5152624 1.12620687 4.33046032 2.03816453 6.2902832 5.11181641 C6.8776123 6.01963867 7.46494141 6.92746094 8.07006836 7.86279297 C8.69316895 8.88083008 9.31626953 9.89886719 9.95825195 10.94775391 C10.97218018 12.58695801 10.97218018 12.58695801 12.0065918 14.25927734 C14.25449363 17.92652373 16.45152507 21.62322994 18.64575195 25.32275391 C19.44215108 26.66034272 20.23886684 27.99774307 21.03588867 29.33496094 C22.22930742 31.33730902 23.42246384 33.33980661 24.61407471 35.3432312 C26.89323678 39.17287025 29.19267405 42.98892511 31.5168457 46.79150391 C44.79433102 68.53751672 57.50698527 90.59372194 52.2746582 117.02197266 C50.31736227 124.40447059 47.44641259 130.77128985 42.95825195 136.94775391 C42.13067383 138.10210938 42.13067383 138.10210938 41.28637695 139.27978516 C34.16331341 148.21405503 23.02077608 154.28659005 11.95825195 156.94775391 C11.22348633 157.12693359 10.4887207 157.30611328 9.73168945 157.49072266 C-4.91633077 159.90455134 -20.03612148 157.94692034 -32.54174805 149.63525391 C-34.06647138 148.43689276 -35.5682024 147.20851317 -37.04174805 145.94775391 C-38.08202148 145.12404297 -38.08202148 145.12404297 -39.14331055 144.28369141 C-46.63013941 137.72187615 -53.32000762 125.85126838 -54.23461914 115.83569336 C-55.25700996 86.97019256 -43.00443868 64.73066357 -28.32299805 40.45947266 C-24.39308483 33.93184003 -20.77227027 27.24460529 -17.17480469 20.52954102 C-14.82198472 16.15168817 -12.43020599 11.79838785 -9.9440918 7.49462891 C-9.48381592 6.69379883 -9.02354004 5.89296875 -8.54931641 5.06787109 C-6.02016797 1.51108971 -4.49518124 -0.07721075 0 0 Z " fill="#16A5DF" transform="translate(804.041748046875,652.05224609375)"/>
<path d="M0 0 C2.54066817 2.52698414 5.06095486 5.06348294 7.54296875 7.6484375 C14.68827965 15.01539024 22.17587826 20.76165211 31 26 C30.44647817 30.59218114 29.19139032 33.91253059 27.0625 38 C-2.12879711 97.59695218 -2.38715548 170.63119716 17 233 C18.50566775 237.3696123 20.16563029 241.65589562 21.93359375 245.92578125 C22.98112923 248.94559964 23.47014298 250.85162675 23 254 C21.75 255.96484375 21.75 255.96484375 20 257.9375 C9.90085845 270.4285435 6.03302091 282.42008524 3 298 C-4.87177882 290.80294508 -8.50300228 282.01006175 -12.3125 272.1875 C-12.79033936 270.95845947 -13.26817871 269.72941895 -13.76049805 268.46313477 C-28.63204371 229.71582732 -36.24130283 189.38560724 -36.1875 147.9375 C-36.18689575 147.07527832 -36.1862915 146.21305664 -36.18566895 145.32470703 C-36.16120302 132.45204799 -35.88402934 119.75542287 -34 107 C-33.87641113 106.12698242 -33.75282227 105.25396484 -33.62548828 104.35449219 C-28.29085479 67.69101113 -16.24879709 33.13788419 0 0 Z " fill="#16A5DE" transform="translate(191,459)"/>
<path d="M0 0 C1.67835938 -0.02416992 1.67835938 -0.02416992 3.390625 -0.04882812 C4.47085938 -0.04947266 5.55109375 -0.05011719 6.6640625 -0.05078125 C7.64068848 -0.05376221 8.61731445 -0.05674316 9.62353516 -0.05981445 C15.9862177 0.80115191 19.18534781 5.07925008 22.88671875 9.875 C45.13120544 40.1637892 67.02499279 75.8921916 77.375 112.3125 C76.88 113.7975 76.88 113.7975 76.375 115.3125 C75.75753906 114.27351563 75.14007812 113.23453125 74.50390625 112.1640625 C69.45708017 103.80353196 64.29697129 96.27592022 57.375 89.3125 C56.50875 88.425625 55.6425 87.53875 54.75 86.625 C53.574375 85.4803125 53.574375 85.4803125 52.375 84.3125 C51.88668701 83.80154785 51.39837402 83.2905957 50.89526367 82.76416016 C46.69394239 78.41065727 42.28101623 74.81399148 37.3125 71.375 C36.57443115 70.85486328 35.8363623 70.33472656 35.07592773 69.79882812 C31.06149317 67.01293223 27.02231744 64.50027998 22.69506836 62.234375 C14.59197444 57.9841621 9.6584708 52.66244886 4.375 45.3125 C3.90884277 44.68166504 3.44268555 44.05083008 2.96240234 43.40087891 C-19.84690242 12.52001127 -19.84690242 12.52001127 -19.625 2.3125 C-13.11156623 -0.04322316 -6.87635156 -0.01994301 0 0 Z " fill="#16A4DE" transform="translate(775.625,376.6875)"/>
<path d="M0 0 C3.97191545 3.78277662 6.73586686 7.03824482 7.23828125 12.671875 C7.42136643 20.26509199 6.99503529 24.80296855 1.609375 30.4609375 C-2.3252022 34.04347359 -6.00896447 35.96031794 -11.35546875 36.03125 C-17.87513965 35.63671621 -22.98626785 34.36598655 -27.50390625 29.3203125 C-31.27472671 24.31403804 -32.48258032 19.77122773 -32.41015625 13.51171875 C-31.39927116 7.32125102 -27.64690781 2.3780249 -22.9375 -1.5625 C-15.03614934 -5.42911841 -7.21536121 -5.02446206 0 0 Z " fill="#FBFDFE" transform="translate(682,731)"/>
<path d="M0 0 C1.50185435 0.11394837 3.00397636 0.22441172 4.50631714 0.33175659 C5.27564953 0.38744183 6.04498192 0.44312706 6.83762741 0.50049973 C10.64347831 0.73590491 14.44807651 0.800496 18.26025391 0.85009766 C19.03360801 0.86045516 19.80696211 0.87081266 20.60375118 0.88148403 C23.03341703 0.91108444 25.46310477 0.93621762 27.89282227 0.96118164 C29.61730866 0.98182669 31.34179086 1.00282465 33.06626892 1.02415466 C37.54257751 1.07859787 42.01892562 1.12834024 46.49530029 1.17700195 C51.08812862 1.22779557 55.6809016 1.28317538 60.27368164 1.33813477 C69.23912884 1.44476092 78.20462468 1.5464061 87.17016602 1.64477539 C87.17016602 1.97477539 87.17016602 2.30477539 87.17016602 2.64477539 C53.18016602 2.64477539 19.19016602 2.64477539 -15.82983398 2.64477539 C-15.82983398 2.31477539 -15.82983398 1.98477539 -15.82983398 1.64477539 C-10.32001705 0.04046656 -5.7385447 -0.53964295 0 0 Z " fill="#018CD5" transform="translate(766.829833984375,628.355224609375)"/>
<path d="M0 0 C1.65 0 3.3 0 5 0 C5.09358795 0.58090897 5.1871759 1.16181793 5.28359985 1.7603302 C6.16917605 4.52889224 7.41012351 5.78443748 9.46240234 7.8347168 C10.19341156 8.5719548 10.92442078 9.30919281 11.67758179 10.06877136 C12.86971786 11.24709282 12.86971786 11.24709282 14.0859375 12.44921875 C14.89866119 13.26244095 15.71138489 14.07566315 16.54873657 14.91352844 C18.26848251 16.63093382 19.99192268 18.34464666 21.71875 20.05493164 C24.3663313 22.67890858 27.000335 25.31595793 29.6328125 27.95507812 C31.30389639 29.6205858 32.97574587 31.28532575 34.6484375 32.94921875 C35.43914642 33.74083908 36.22985535 34.53245941 37.04452515 35.34806824 C37.78183868 36.07584976 38.51915222 36.80363129 39.27880859 37.5534668 C39.92643158 38.19648239 40.57405457 38.83949799 41.24130249 39.5019989 C43.03595245 41.21999395 43.03595245 41.21999395 46 42 C45.67 43.32 45.34 44.64 45 46 C39.12980414 40.1529263 33.26227795 34.30319238 27.39818573 28.4499979 C24.6754678 25.73250908 21.95182313 23.01596256 19.22607422 20.30151367 C16.59793782 17.68420516 13.97221823 15.06449485 11.34819031 12.44306755 C10.34427943 11.4410111 9.33948573 10.43983835 8.33381653 9.43954659 C6.93052954 8.04346866 5.53060515 6.64401319 4.13085938 5.24438477 C3.33143921 4.44718521 2.53201904 3.64998566 1.70837402 2.82862854 C0 1 0 1 0 0 Z " fill="#0695D8" transform="translate(554,688)"/>
<path d="M0 0 C1.0714288 0.84293966 2.13158468 1.70020668 3.1875 2.5625 C3.77917969 3.03816406 4.37085938 3.51382813 4.98046875 4.00390625 C7.7518591 6.74313346 9.79055626 9.79077343 12 13 C10.8140625 12.72285156 9.628125 12.44570313 8.40625 12.16015625 C-2.12201592 9.7780473 -12.2000833 8.29792874 -23 8 C-23 7.67 -23 7.34 -23 7 C-22.40985107 6.98018066 -21.81970215 6.96036133 -21.21166992 6.93994141 C-18.53649904 6.84465341 -15.86210502 6.73499061 -13.1875 6.625 C-12.25873047 6.5940625 -11.32996094 6.563125 -10.37304688 6.53125 C-9.48037109 6.49257813 -8.58769531 6.45390625 -7.66796875 6.4140625 C-6.43469849 6.36693115 -6.43469849 6.36693115 -5.17651367 6.31884766 C-2.71047063 6.11626378 -2.71047063 6.11626378 0 4 C0.66 4 1.32 4 2 4 C1.34 2.68 0.68 1.36 0 0 Z " fill="#109ADA" transform="translate(692,251)"/>
<path d="M0 0 C0.33 0.99 0.66 1.98 1 3 C0.44014404 3.54414551 -0.11971191 4.08829102 -0.6965332 4.64892578 C-3.24314156 7.13294509 -5.77785032 9.62878183 -8.3125 12.125 C-9.19357422 12.9809375 -10.07464844 13.836875 -10.98242188 14.71875 C-11.82998047 15.55664062 -12.67753906 16.39453125 -13.55078125 17.2578125 C-14.33106689 18.0223877 -15.11135254 18.78696289 -15.9152832 19.57470703 C-18.18474608 22.21492769 -19.57069119 24.83752932 -21 28 C-22.32 27.34 -23.64 26.68 -25 26 C-24.27820557 25.28344238 -23.55641113 24.56688477 -22.81274414 23.82861328 C-20.13964596 21.17359277 -17.46984029 18.51528247 -14.80102539 15.85595703 C-13.64469755 14.70466305 -12.48747446 13.55426751 -11.3293457 12.40478516 C-9.66642789 10.75397424 -8.0067389 9.09997663 -6.34765625 7.4453125 C-5.56794212 6.6733403 -5.56794212 6.6733403 -4.7724762 5.88577271 C-2.04458311 3.20150686 -2.04458311 3.20150686 0 0 Z " fill="#0796D8" transform="translate(413,552)"/>
<path d="M0 0 C2.5864584 2.5864584 3.62271883 5.2938548 5.125 8.625 C5.66382813 9.81351562 6.20265625 11.00203125 6.7578125 12.2265625 C7.37269531 13.59941406 7.37269531 13.59941406 8 15 C8.99 14.34 9.98 13.68 11 13 C11.66 14.65 12.32 16.3 13 18 C12.01 18 11.02 18 10 18 C10.66 19.98 11.32 21.96 12 24 C8.66743905 21.20190637 6.88007465 17.46629453 4.875 13.6875 C4.51535156 13.03587891 4.15570313 12.38425781 3.78515625 11.71289062 C1.69752827 7.80738436 0.4577705 4.47366621 0 0 Z " fill="#0C98DA" transform="translate(187,401)"/>
<path d="M0 0 C0.66 0.33 1.32 0.66 2 1 C1.15695312 1.45890625 0.31390625 1.9178125 -0.5546875 2.390625 C-1.65039062 3.00421875 -2.74609375 3.6178125 -3.875 4.25 C-4.96554687 4.85328125 -6.05609375 5.4565625 -7.1796875 6.078125 C-9.92992898 7.95225077 -10.92359054 8.92065142 -12 12 C-12.66 11.67 -13.32 11.34 -14 11 C-14 10.34 -14 9.68 -14 9 C-15.65 9.66 -17.3 10.32 -19 11 C-19 10.34 -19 9.68 -19 9 C-15.88112823 7.46635461 -12.75402378 5.95031107 -9.625 4.4375 C-8.73554687 3.99986328 -7.84609375 3.56222656 -6.9296875 3.11132812 C-6.07890625 2.70205078 -5.228125 2.29277344 -4.3515625 1.87109375 C-3.56604004 1.48880615 -2.78051758 1.10651855 -1.97119141 0.71264648 C-1.32069824 0.47747314 -0.67020508 0.2422998 0 0 Z " fill="#109CDB" transform="translate(649,882)"/>
<path d="M0 0 C5.03188797 0.5733782 8.8712778 2.90635527 13.1875 5.375 C13.91130859 5.77460938 14.63511719 6.17421875 15.38085938 6.5859375 C16.07373047 6.9778125 16.76660156 7.3696875 17.48046875 7.7734375 C18.10848389 8.12841309 18.73649902 8.48338867 19.38354492 8.84912109 C21 10 21 10 23 13 C22.30132813 12.7834375 21.60265625 12.566875 20.8828125 12.34375 C19.97273437 12.0653125 19.06265625 11.786875 18.125 11.5 C17.22007812 11.2215625 16.31515625 10.943125 15.3828125 10.65625 C13.09055353 9.91149206 13.09055353 9.91149206 11 10 C10.93941406 9.39671875 10.87882813 8.7934375 10.81640625 8.171875 C9.64406375 5.05310739 7.91284651 4.60585411 4.9375 3.25 C4.01839844 2.82203125 3.09929688 2.3940625 2.15234375 1.953125 C1.08693359 1.48132813 1.08693359 1.48132813 0 1 C0 0.67 0 0.34 0 0 Z " fill="#0F9BDC" transform="translate(776,457)"/>
<path d="M0 0 C0 3 0 3 -1.74414062 5.0847168 C-2.54013672 5.86500244 -3.33613281 6.64528809 -4.15625 7.44921875 C-5.01347656 8.29677734 -5.87070312 9.14433594 -6.75390625 10.01757812 C-7.66011719 10.89865234 -8.56632812 11.77972656 -9.5 12.6875 C-10.40621094 13.58017578 -11.31242187 14.47285156 -12.24609375 15.39257812 C-14.49085168 17.60189251 -16.74229998 19.80392533 -19 22 C-19 19 -19 19 -17.73071289 17.421875 C-16.86047485 16.59429688 -16.86047485 16.59429688 -15.97265625 15.75 C-15.34552734 15.1415625 -14.71839844 14.533125 -14.07226562 13.90625 C-13.07743164 12.96265625 -13.07743164 12.96265625 -12.0625 12 C-10.75722478 10.75469343 -9.45623755 9.50487256 -8.16015625 8.25 C-7.57886963 7.69828125 -6.99758301 7.1465625 -6.39868164 6.578125 C-4.76156219 4.938994 -4.76156219 4.938994 -4 2 C-1.9375 0.8125 -1.9375 0.8125 0 0 Z " fill="#0997D9" transform="translate(429,643)"/>
<path d="M0 0 C0.33 0 0.66 0 1 0 C1 4.95 1 9.9 1 15 C1.99 15.33 2.98 15.66 4 16 C3 19 3 19 -0.0625 20.6875 C-1.031875 21.120625 -2.00125 21.55375 -3 22 C-2.690625 20.783125 -2.38125 19.56625 -2.0625 18.3125 C-0.70131794 12.26923779 -0.36241197 6.17054072 0 0 Z " fill="#0C9BDA" transform="translate(314,337)"/>
<path d="M0 0 C3.4166414 1.46427488 5.49130651 3.2699512 8 6 C8.52335938 6.56460938 9.04671875 7.12921875 9.5859375 7.7109375 C10.40964844 8.62746094 10.40964844 8.62746094 11.25 9.5625 C11.77078125 10.14128906 12.2915625 10.72007812 12.828125 11.31640625 C14 13 14 13 14 16 C11.65861457 13.71643754 9.32833018 11.42186626 7 9.125 C5.99839844 8.14853516 5.99839844 8.14853516 4.9765625 7.15234375 C4.34492187 6.52714844 3.71328125 5.90195312 3.0625 5.2578125 C2.47597656 4.6817627 1.88945313 4.10571289 1.28515625 3.51220703 C0 2 0 2 0 0 Z " fill="#22A3DC" transform="translate(522,507)"/>
<path d="M0 0 C1.16208984 0.08507812 1.16208984 0.08507812 2.34765625 0.171875 C4.23265095 0.31150424 6.11648861 0.46661381 8 0.625 C8 0.955 8 1.285 8 1.625 C2.28094617 2.45036345 -3.2267149 2.75253701 -9 2.6875 C-10.16208984 2.68073242 -10.16208984 2.68073242 -11.34765625 2.67382812 C-13.23180524 2.66219758 -15.11591365 2.64426906 -17 2.625 C-17 2.295 -17 1.965 -17 1.625 C-11.03819344 -0.14999241 -6.17205915 -0.53484048 0 0 Z " fill="#0799DB" transform="translate(768,628.375)"/>
<path d="M0 0 C0 3 0 6 0 9 C1.32 9 2.64 9 4 9 C4.33 9.99 4.66 10.98 5 12 C3.53932801 11.54917531 2.08151968 11.08906463 0.625 10.625 C-0.59316406 10.24214844 -0.59316406 10.24214844 -1.8359375 9.8515625 C-4 9 -4 9 -6 7 C-4.02 4.69 -2.04 2.38 0 0 Z " fill="#109ADA" transform="translate(348,234)"/>
<path d="M0 0 C2 0 2 0 3.625 1.5 C4.07875 1.995 4.5325 2.49 5 3 C5.33 2.34 5.66 1.68 6 1 C6.66 1.33 7.32 1.66 8 2 C7.9175 2.7425 7.835 3.485 7.75 4.25 C8.07105184 7.78157027 9.35265617 8.76630364 12 11 C11.67 11.66 11.34 12.32 11 13 C9.16052663 11.21427748 7.32842259 9.42197551 5.5 7.625 C4.71302734 6.86316406 4.71302734 6.86316406 3.91015625 6.0859375 C2.56846819 4.76167396 1.28004185 3.38394135 0 2 C0 1.34 0 0.68 0 0 Z " fill="#0F9ED9" transform="translate(568,176)"/>
<path d="M0 0 C5.52326557 2.4547847 9.17209557 5.64186529 12 11 C9 11 9 11 6.73828125 9.1015625 C5.93777344 8.28429687 5.13726562 7.46703125 4.3125 6.625 C3.50425781 5.81289063 2.69601562 5.00078125 1.86328125 4.1640625 C0 2 0 2 0 0 Z " fill="#2AA4DE" transform="translate(499,633)"/>
<path d="M0 0 C4.95 1.98 4.95 1.98 10 4 C9.01 4.495 9.01 4.495 8 5 C8.66 6.98 9.32 8.96 10 11 C9.01 10.34 8.02 9.68 7 9 C7 8.01 7 7.02 7 6 C6.21625 5.938125 5.4325 5.87625 4.625 5.8125 C3.75875 5.544375 2.8925 5.27625 2 5 C1.34 3.35 0.68 1.7 0 0 Z " fill="#1DA0DD" transform="translate(227,813)"/>
<path d="M0 0 C0.99 0.33 1.98 0.66 3 1 C2.01 1.66 1.02 2.32 0 3 C0.33 4.65 0.66 6.3 1 8 C-0.65 8.33 -2.3 8.66 -4 9 C-4.33 8.01 -4.66 7.02 -5 6 C-3.59554165 3.7363436 -1.8032087 1.9791315 0 0 Z " fill="#129DDB" transform="translate(621,392)"/>
<path d="M0 0 C0.721875 0.144375 1.44375 0.28875 2.1875 0.4375 C3.5796875 0.7159375 3.5796875 0.7159375 5 1 C5.86625 1.20625 6.7325 1.4125 7.625 1.625 C10.14042413 2.20892371 10.14042413 2.20892371 13 1 C13.33 2.65 13.66 4.3 14 6 C8.65155992 5.46515599 4.64203897 3.53309233 0 1 C0 0.67 0 0.34 0 0 Z " fill="#119CDB" transform="translate(369,927)"/>
<path d="M0 0 C0.66 0.33 1.32 0.66 2 1 C1.2884375 2.0828125 1.2884375 2.0828125 0.5625 3.1875 C-0.94152903 5.89475226 -1.56599182 7.96194275 -2 11 C-2.99 11.33 -3.98 11.66 -5 12 C-5.33 13.65 -5.66 15.3 -6 17 C-6.71484375 15.421875 -6.71484375 15.421875 -7 13 C-5.94290501 10.61505544 -4.8682111 8.48765933 -3.5625 6.25 C-3.22412109 5.64800781 -2.88574219 5.04601562 -2.53710938 4.42578125 C-1.70231735 2.94431935 -0.85258506 1.47129392 0 0 Z " fill="#109BDA" transform="translate(788,671)"/>
<path d="M0 0 C0.66 0.33 1.32 0.66 2 1 C2 1.99 2 2.98 2 4 C0 5.6875 0 5.6875 -2 7 C-2.66 6.34 -3.32 5.68 -4 5 C-4.66 6.65 -5.32 8.3 -6 10 C-6.8125 8.3125 -6.8125 8.3125 -7 6 C-4.8386373 3.48814606 -2.98037561 1.49018781 0 0 Z " fill="#109BDC" transform="translate(259,264)"/>
<path d="M0 0 C1.8125 0.75 1.8125 0.75 2.8125 2.75 C2.1525 2.75 1.4925 2.75 0.8125 2.75 C0.8125 3.41 0.8125 4.07 0.8125 4.75 C-0.8375 5.08 -2.4875 5.41 -4.1875 5.75 C-4.8475 4.43 -5.5075 3.11 -6.1875 1.75 C-3.9127187 0.36888278 -2.68578639 -0.30694702 0 0 Z " fill="#119BDA" transform="translate(284.1875,818.25)"/>
<path d="M0 0 C0 0.99 0 1.98 0 3 C-0.66 3.66 -1.32 4.32 -2 5 C-2.64767793 7.57061311 -2.64767793 7.57061311 -3 10 C-4.32 10 -5.64 10 -7 10 C-7.99 10.66 -8.98 11.32 -10 12 C-8.52278578 8.54798361 -6.56205999 6.35038064 -3.875 3.75 C-3.15054687 3.04359375 -2.42609375 2.3371875 -1.6796875 1.609375 C-1.12539063 1.07828125 -0.57109375 0.5471875 0 0 Z " fill="#0D9CDC" transform="translate(373,207)"/>
<path d="M0 0 C3.21043882 1.38188453 5.04936365 2.92421903 7.25 5.625 C8.03117188 6.57246094 8.03117188 6.57246094 8.828125 7.5390625 C9.40820312 8.26222656 9.40820312 8.26222656 10 9 C9.01 9.495 9.01 9.495 8 10 C6.33333333 8.33333333 4.66666667 6.66666667 3 5 C2.401875 4.443125 1.80375 3.88625 1.1875 3.3125 C0 2 0 2 0 0 Z " fill="#27A6DE" transform="translate(534,550)"/>
<path d="M0 0 C1.33256282 3.64120668 0.65840377 5.66876554 -0.8125 9.1875 C-1.16957031 10.06792969 -1.52664063 10.94835937 -1.89453125 11.85546875 C-3 14 -3 14 -5 15 C-4.814375 14.0925 -4.62875 13.185 -4.4375 12.25 C-4.04265379 9.31685676 -4.05308428 7.7355343 -5 5 C-4.01 5.33 -3.02 5.66 -2 6 C-1.34 4.02 -0.68 2.04 0 0 Z " fill="#0E9ADA" transform="translate(854,769)"/>
<path d="M0 0 C3.25914951 3.08297927 6.06553673 5.9161331 8 10 C7.67 10.99 7.34 11.98 7 13 C6.7525 12.38125 6.505 11.7625 6.25 11.125 C4.79371361 8.64931313 3.62187494 8.04874998 1 7 C1.33 6.01 1.66 5.02 2 4 C1.12516085 1.83284443 1.12516085 1.83284443 0 0 Z " fill="#119CDA" transform="translate(704,717)"/>
<path d="M0 0 C1.2065625 0.0309375 1.2065625 0.0309375 2.4375 0.0625 C1.4475 0.743125 1.4475 0.743125 0.4375 1.4375 C-0.5525 2.241875 -0.5525 2.241875 -1.5625 3.0625 C-1.5625 3.7225 -1.5625 4.3825 -1.5625 5.0625 C-2.18125 5.124375 -2.8 5.18625 -3.4375 5.25 C-5.84011141 5.891419 -5.84011141 5.891419 -6.8125 8.625 C-7.06 9.429375 -7.3075 10.23375 -7.5625 11.0625 C-7.8925 10.4025 -8.2225 9.7425 -8.5625 9.0625 C-7.6015625 7.15234375 -7.6015625 7.15234375 -6.1875 5 C-5.72601562 4.28714844 -5.26453125 3.57429687 -4.7890625 2.83984375 C-2.87769546 0.07018769 -2.87769546 0.07018769 0 0 Z " fill="#0C9ADA" transform="translate(801.5625,652.9375)"/>
<path d="M0 0 C2.73902249 2.36551942 3.93170092 4.54857221 5 8 C5.125 10.8125 5.125 10.8125 5 13 C4.01 13.495 4.01 13.495 3 14 C2.87882813 13.37351562 2.75765625 12.74703125 2.6328125 12.1015625 C2.46523437 11.28429687 2.29765625 10.46703125 2.125 9.625 C1.96257812 8.81289063 1.80015625 8.00078125 1.6328125 7.1640625 C1.13341068 4.81326077 1.13341068 4.81326077 -1 3 C-0.67 2.01 -0.34 1.02 0 0 Z " fill="#139ADB" transform="translate(209,700)"/>
<path d="M0 0 C2.375 0.6875 2.375 0.6875 5 2 C6.1875 4.5625 6.1875 4.5625 7 7 C7.66 7.33 8.32 7.66 9 8 C6 8 6 8 4.39453125 6.7578125 C3.87246094 6.21898437 3.35039063 5.68015625 2.8125 5.125 C2.28269531 4.59132813 1.75289063 4.05765625 1.20703125 3.5078125 C0 2 0 2 0 0 Z " fill="#26A6DE" transform="translate(510,495)"/>
<path d="M0 0 C1.65 0.33 3.3 0.66 5 1 C5 2.98 5 4.96 5 7 C3.68 6.67 2.36 6.34 1 6 C1 5.34 1 4.68 1 4 C0.34 3.67 -0.32 3.34 -1 3 C-0.67 2.01 -0.34 1.02 0 0 Z " fill="#1BA5E0" transform="translate(840,467)"/>
<path d="M0 0 C3.21524305 1.40844718 5.32183868 3.10344786 7.75 5.625 C8.67039063 6.57246094 8.67039063 6.57246094 9.609375 7.5390625 C10.29773438 8.26222656 10.29773438 8.26222656 11 9 C10.01 9.66 9.02 10.32 8 11 C7.34 10.67 6.68 10.34 6 10 C5.896875 9.443125 5.79375 8.88625 5.6875 8.3125 C4.6459623 4.80914591 2.41333246 2.72273405 0 0 Z " fill="#0A98DA" transform="translate(210,361)"/>
<path d="M0 0 C3.2826932 1.49076434 5.93077441 3.38620321 8.75 5.625 C9.94882812 6.57246094 9.94882812 6.57246094 11.171875 7.5390625 C11.77515625 8.02117188 12.3784375 8.50328125 13 9 C9.19794574 9 7.88843439 7.7999031 4.8125 5.625 C3.91144531 4.99851562 3.01039063 4.37203125 2.08203125 3.7265625 C1.39496094 3.15679688 0.70789063 2.58703125 0 2 C0 1.34 0 0.68 0 0 Z " fill="#139BDA" transform="translate(314,845)"/>
<path d="M0 0 C0.33 0.66 0.66 1.32 1 2 C1.66 2.33 2.32 2.66 3 3 C0.69 4.98 -1.62 6.96 -4 9 C-4 5 -4 5 -3 2 C-2.01 2 -1.02 2 0 2 C0 1.34 0 0.68 0 0 Z " fill="#0F9CDA" transform="translate(443,625)"/>
<path d="M0 0 C0.309375 0.94875 0.61875 1.8975 0.9375 2.875 C1.87394742 5.86080408 1.87394742 5.86080408 3 8 C-0.7952131 6.50902342 -2.61042731 4.24299151 -5 1 C-3 0 -3 0 0 0 Z " fill="#0E9CDA" transform="translate(479,608)"/>
<path d="M0 0 C0.598125 0.639375 1.19625 1.27875 1.8125 1.9375 C3.90810337 4.20310389 3.90810337 4.20310389 7 5 C8.6875 7.5625 8.6875 7.5625 10 10 C7 10 7 10 5.17578125 8.3203125 C4.56089844 7.59585938 3.94601562 6.87140625 3.3125 6.125 C2.68988281 5.40570313 2.06726563 4.68640625 1.42578125 3.9453125 C0 2 0 2 0 0 Z " fill="#26A5DD" transform="translate(585,193)"/>
<path d="M0 0 C0 3 0 3 -1.71484375 5.04296875 C-2.44832031 5.75066406 -3.18179687 6.45835937 -3.9375 7.1875 C-4.66839844 7.90292969 -5.39929688 8.61835938 -6.15234375 9.35546875 C-8 11 -8 11 -9 11 C-9 9.35 -9 7.7 -9 6 C-8.1646875 5.9071875 -8.1646875 5.9071875 -7.3125 5.8125 C-4.05012827 4.66626128 -2.31332126 2.50609803 0 0 Z " fill="#0997D9" transform="translate(465,167)"/>
<path d="M0 0 C3.3125 -0.25 3.3125 -0.25 7 0 C8.9375 2 8.9375 2 10 4 C8.35 4.33 6.7 4.66 5 5 C4.34 4.01 3.68 3.02 3 2 C2.01 1.34 1.02 0.68 0 0 Z " fill="#27A9E1" transform="translate(532,914)"/>
<path d="M0 0 C-0.66 0 -1.32 0 -2 0 C-2 1.65 -2 3.3 -2 5 C-2.99 5.495 -2.99 5.495 -4 6 C-4.66 5.67 -5.32 5.34 -6 5 C-6 4.34 -6 3.68 -6 3 C-6.66 2.34 -7.32 1.68 -8 1 C-3.375 -1.125 -3.375 -1.125 0 0 Z " fill="#0D9DDC" transform="translate(617,898)"/>
<path d="M0 0 C1.65 0 3.3 0 5 0 C3.44499019 3.81684226 0.96404505 6.19195732 -2 9 C-2.66 8.67 -3.32 8.34 -4 8 C-3.34 7.4225 -2.68 6.845 -2 6.25 C0.44290923 4.00346023 0.44290923 4.00346023 0 0 Z " fill="#139CDA" transform="translate(304,768)"/>
<path d="M0 0 C3.7952131 1.49097658 5.61042731 3.75700849 8 7 C5 7 5 7 2.3125 4.625 C0 2 0 2 0 0 Z " fill="#28A6E0" transform="translate(552,568)"/>
<path d="M0 0 C1.98 0.66 3.96 1.32 6 2 C6 2.66 6 3.32 6 4 C6.66 4.66 7.32 5.32 8 6 C4.04179141 5.43454163 1.3340947 4.19097652 -2 2 C-1.34 1.34 -0.68 0.68 0 0 Z " fill="#0B98DA" transform="translate(650,784)"/>
<path d="M0 0 C0.33 0.66 0.66 1.32 1 2 C-4.53846154 7.84615385 -4.53846154 7.84615385 -8 9 C-8.99 8.67 -9.98 8.34 -11 8 C-10.18595703 7.51080078 -10.18595703 7.51080078 -9.35546875 7.01171875 C-8.28232422 6.35623047 -8.28232422 6.35623047 -7.1875 5.6875 C-6.47980469 5.25824219 -5.77210938 4.82898438 -5.04296875 4.38671875 C-3.11039769 3.07493533 -1.58589388 1.70596155 0 0 Z " fill="#0997DA" transform="translate(686,758)"/>
<path d="M0 0 C1.60080151 4.00200378 0.29279692 7.04556236 -1 11 C-1.66 11 -2.32 11 -3 11 C-3.33 9.35 -3.66 7.7 -4 6 C-3.01 6 -2.02 6 -1 6 C-0.67 4.02 -0.34 2.04 0 0 Z " fill="#0D98DA" transform="translate(196,739)"/>
<path d="M0 0 C2.52631142 3.12781414 4.42373366 6.29577411 6 10 C5.67 10.99 5.34 11.98 5 13 C4.61908203 12.16855469 4.61908203 12.16855469 4.23046875 11.3203125 C3.88628906 10.59585937 3.54210937 9.87140625 3.1875 9.125 C2.85105469 8.40570313 2.51460937 7.68640625 2.16796875 6.9453125 C1.00532903 4.69457194 1.00532903 4.69457194 -2 3 C-1.34 2.01 -0.68 1.02 0 0 Z " fill="#0E97D9" transform="translate(835,449)"/>
<path d="M0 0 C1.85776765 3.13498292 2.20140476 5.37471432 2 9 C1.67 8.01 1.34 7.02 1 6 C-1.01508358 5.26676204 -1.01508358 5.26676204 -3 5 C-2.625 3.0625 -2.625 3.0625 -2 1 C-1.34 0.67 -0.68 0.34 0 0 Z " fill="#109CDC" transform="translate(198,658)"/>
<path d="M0 0 C1.14926266 0.95421808 2.29430541 1.91352045 3.4375 2.875 C4.07558594 3.40867187 4.71367188 3.94234375 5.37109375 4.4921875 C7 6 7 6 8 8 C3.545 7.01 3.545 7.01 -1 6 C-0.01 5.67 0.98 5.34 2 5 C1.34 3.35 0.68 1.7 0 0 Z " fill="#0899DB" transform="translate(602,617)"/>
<path d="M0 0 C0.33 0 0.66 0 1 0 C1.33 2.97 1.66 5.94 2 9 C1.01 9.33 0.02 9.66 -1 10 C-1.125 2.25 -1.125 2.25 0 0 Z " fill="#2BA7DF" transform="translate(840,535)"/>
<path d="M0 0 C1.06775224 1.96466413 2.06553465 3.96855359 3 6 C2.67 6.66 2.34 7.32 2 8 C0.02 5.69 -1.96 3.38 -4 1 C-2 0 -2 0 0 0 Z " fill="#0E9BDA" transform="translate(271,285)"/>
<path d="M0 0 C0.99 0.33 1.98 0.66 3 1 C1.02 3.97 -0.96 6.94 -3 10 C-4 8 -4 8 -3.75 6.0625 C-2.90054195 3.72649036 -1.81438791 2.65661505 0 1 C0 0.67 0 0.34 0 0 Z " fill="#1199D9" transform="translate(208,715)"/>
<path d="M0 0 C3.36720387 1.39332574 4.9859524 2.9789286 7 6 C5.68 6.33 4.36 6.66 3 7 C3 6.01 3 5.02 3 4 C2.01 3.67 1.02 3.34 0 3 C0 2.01 0 1.02 0 0 Z " fill="#26A4DC" transform="translate(671,685)"/>
<path d="M0 0 C2.63564456 2.63564456 4.31830856 4.72070169 6 8 C5.67 8.66 5.34 9.32 5 10 C3.68 9.67 2.36 9.34 1 9 C0.67 6.03 0.34 3.06 0 0 Z " fill="#0C99DA" transform="translate(818,418)"/>
<path d="M0 0 C3.73639216 1.24546405 4.18756513 2.63404953 6 6 C3.36 5.34 0.72 4.68 -2 4 C-1.34 3.67 -0.68 3.34 0 3 C0 2.01 0 1.02 0 0 Z " fill="#249EDC" transform="translate(698,258)"/>
<path d="M0 0 C2.52259061 1.97420135 2.9929808 2.96745642 3.6875 6.1875 C3.790625 7.115625 3.89375 8.04375 4 9 C2.35 7.68 0.7 6.36 -1 5 C-0.67 3.35 -0.34 1.7 0 0 Z " fill="#0D9DDD" transform="translate(595,200)"/>
<path d="M0 0 C0.33 0.99 0.66 1.98 1 3 C-1.64 5.31 -4.28 7.62 -7 10 C-7 7 -7 7 -5.46875 5.17578125 C-4.8190625 4.56089844 -4.169375 3.94601563 -3.5 3.3125 C-2.8503125 2.68988281 -2.200625 2.06726563 -1.53125 1.42578125 C-0.77328125 0.72001953 -0.77328125 0.72001953 0 0 Z " fill="#0B96D8" transform="translate(469,105)"/>
<path d="M0 0 C-0.33 0.99 -0.66 1.98 -1 3 C-4.63 3.33 -8.26 3.66 -12 4 C-4 0 -4 0 0 0 Z " fill="#0997DA" transform="translate(620,442)"/>
<path d="M0 0 C0.99 0.66 1.98 1.32 3 2 C1.95125002 4.62187494 1.35068687 5.79371361 -1.125 7.25 C-1.74375 7.4975 -2.3625 7.745 -3 8 C-2.67 6.35 -2.34 4.7 -2 3 C-1.34 3 -0.68 3 0 3 C0 2.01 0 1.02 0 0 Z " fill="#0D9DDA" transform="translate(809,334)"/>
<path d="M0 0 C2.475 0.495 2.475 0.495 5 1 C4.01 1.495 4.01 1.495 3 2 C4.32 3.98 5.64 5.96 7 8 C3.64379729 6.61122646 1.92701272 5.08322035 0 2 C0 1.34 0 0.68 0 0 Z " fill="#0F9ADB" transform="translate(542,331)"/>
<path d="M0 0 C2.31 0 4.62 0 7 0 C6.34 1.65 5.68 3.3 5 5 C4.34 5 3.68 5 3 5 C3 4.01 3 3.02 3 2 C2.01 1.67 1.02 1.34 0 1 C0 0.67 0 0.34 0 0 Z " fill="#119CDA" transform="translate(476,914)"/>
<path d="M0 0 C2.31 0 4.62 0 7 0 C4.60490662 2.89932357 2.68754757 3.50168276 -1 4 C-0.67 2.68 -0.34 1.36 0 0 Z " fill="#129CD9" transform="translate(689,905)"/>
<path d="M0 0 C2.97 0.495 2.97 0.495 6 1 C4.35 2.65 2.7 4.3 1 6 C0 1.125 0 1.125 0 0 Z " fill="#0B94DA" transform="translate(776,831)"/>
<path d="M0 0 C0.33 0.66 0.66 1.32 1 2 C1.66 2.33 2.32 2.66 3 3 C1.824375 3.37125 1.824375 3.37125 0.625 3.75 C-2.32317108 5.15389099 -2.9024777 6.00675737 -4 9 C-3.46930939 5.17902761 -2.50298434 2.93828597 0 0 Z " fill="#129CDB" transform="translate(779,688)"/>
<path d="M0 0 C3.36720387 1.39332574 4.9859524 2.9789286 7 6 C4 6 4 6 1.8125 4.125 C0 2 0 2 0 0 Z " fill="#2AA6DE" transform="translate(514,648)"/>
<path d="M0 0 C1.98 1.65 3.96 3.3 6 5 C4 6 4 6 1 6 C0.01 6.495 0.01 6.495 -1 7 C-0.67 4.69 -0.34 2.38 0 0 Z " fill="#0C99DA" transform="translate(610,625)"/>
<path d="M0 0 C2.31 0.66 4.62 1.32 7 2 C6.34 2.66 5.68 3.32 5 4 C2.375 3.625 2.375 3.625 0 3 C0 2.01 0 1.02 0 0 Z " fill="#0F9EDB" transform="translate(730,443)"/>
<path d="M0 0 C0 3 0 3 -2 5.1875 C-2.66 5.785625 -3.32 6.38375 -4 7 C-4.66 6.67 -5.32 6.34 -6 6 C-6 5.01 -6 4.02 -6 3 C-5.38125 2.87625 -4.7625 2.7525 -4.125 2.625 C-1.80879168 2.12802644 -1.80879168 2.12802644 0 0 Z " fill="#0E9CDA" transform="translate(392,681)"/>
<path d="M0 0 C0 3.10551666 -0.5393715 4.35261084 -2 7 C-2.99 7 -3.98 7 -5 7 C-3.70700306 4.11562221 -2.34058637 2.12780579 0 0 Z " fill="#26A5DE" transform="translate(395,183)"/>
<path d="M0 0 C2.46800047 1.15173355 4.04783565 2.04783565 6 4 C5.67 4.99 5.34 5.98 5 7 C3.29115995 5.37660195 1.62553283 3.70680947 0 2 C0 1.34 0 0.68 0 0 Z " fill="#25A3DE" transform="translate(536,143)"/>
</svg>
